<?xml version="1.0" encoding="utf-8"?>
<!-- Generator: Adobe Illustrator 27.5.0, SVG Export Plug-In . SVG Version: 6.00 Build 0)  -->
<svg version="1.1" id="illustration" xmlns="http://www.w3.org/2000/svg" xmlns:xlink="http://www.w3.org/1999/xlink" x="0px"
	 y="0px" viewBox="0 0 550 450" style="enable-background:new 0 0 550 450;" xml:space="preserve">
<g>
	<rect style="fill:#FFFFFF;" width="550" height="450"/>
	<g>
		<g>
			<path style="opacity:0.24;fill:#565684;" d="M525.854,419.436c-0.02,4.547-140.197,9.035-255.298,8.528
				c-115.101-0.507-225.193-4.716-225.173-9.263c0.02-4.547,108.199-10.867,223.3-10.36
				C383.784,408.849,525.874,414.889,525.854,419.436z"/>
			<g>
				<g>
					<polygon style="fill:#D1B48F;" points="340.591,238.184 340.591,416.937 329.298,416.927 320.503,247.187 320.13,239.948 					
						"/>
				</g>
				<g style="opacity:0.24;">
					<polygon points="340.591,239.948 340.591,247.187 320.503,247.187 320.13,239.948 					"/>
				</g>
				<g>
					<polygon style="fill:#B79C7E;" points="250.323,279.389 309.664,410.993 294.996,410.993 238.086,283.279 					"/>
				</g>
				<path style="fill:#FFF0DC;" d="M234.395,41.71c-0.509,4.785-0.34,9.667,0.092,14.432c0.725,7.996,2.145,16.067,3.919,23.896
					c1.355,5.98,3.581,11.531,6.275,16.966c7.96-4.908,11.577-17.527,13.274-28.317c2.054-13.051-1.652-24.048-14.14-28.299
					c-0.454-0.163-3.89,3.679-4.361,3.548c-0.013-0.004-2.051,1.373-2.064,1.369C235.479,46.641,236.307,40.374,234.395,41.71z"/>
				<g>
					<path style="fill:#306A99;" d="M338.221,381.828l-9.205-132.814c0,0-33.136,29.401-35.216,41.926
						c-5.081,30.602,11.767,97.118,11.767,97.118L338.221,381.828z"/>
				</g>
				<g>
					<path style="fill:#EAEAEA;" d="M308.978,400.523c0,0-4.448,14.002,1.428,16.37c5.876,2.368,17.372,0.542,20.539,0.76
						c4.896,0.337,34.648,2.688,36.697,2.839c9.596,0.706,12.684-8.042,8.584-8.328c-9.431-0.659-43.051-16.753-43.051-16.753
						L308.978,400.523z"/>
				</g>
				<g>
					<g>
						<path style="fill:#BD79C6;" d="M368.4,416.26c-2.06-0.16-31.8-2.07-36.7-2.4c-3.17-0.23-15.29,0.59-21.18-1.77
							c-2.01-0.82-2.87-2.86-3.12-5.2c-0.03-0.27-0.05-0.56-0.06-0.84c-0.22-4.31,1.29-9.19,1.29-9.19l24.79-4.71
							c0,0,5.44,2.65,12.53,6.16c0.35,0.17,0.7,0.34,1.06,0.52c1.23,0.61,2.5,1.23,3.8,1.87c0.35,0.18,0.71,0.36,1.07,0.53
							c1.77,0.88,3.57,1.79,5.36,2.69h0.01c0.35,0.18,0.72,0.35,1.07,0.52c1.39,0.71,2.77,1.41,4.12,2.09
							c0.35,0.18,0.7,0.36,1.05,0.53c0.04,0.02,0.07,0.04,0.11,0.06c3.02,1.53,5.83,2.47,8.16,3.27c0.35,0.11,0.69,0.22,1.01,0.33
							c1.38,0.48,2.56,0.92,3.46,1.44C376.49,412.32,373.36,416.63,368.4,416.26z"/>
					</g>
				</g>
				<g>
					<g>
						<path style="fill:#EAEAEA;" d="M236.482,375.476c0,0-12.015,7.965-11.418,12.961c0.659,5.505,5.578,8.356,13.022,12.092
							c9.609,4.823,24.367,15.182,34.547,19.128c8.875,3.441,14.443,1.275,16.749-3.931c3.034-6.85-19.992-14.845-21.987-18.529
							c-1.995-3.684-8.311-13.249-8.311-13.249L236.482,375.476z"/>
					</g>
				</g>
				<g>
					<path style="fill:#DDA794;" d="M128.565,134.343c0,0-1.376,8.787-4.694,7.128c-1.955-0.978-3.705-6.775-3.705-6.775
						l4.587-4.658L128.565,134.343z"/>
				</g>
				<g>
					<path style="fill:#E0D0BF;" d="M132.658,142.694c-4.96,0-10.481-7.081-10.481-11.879c0-4.88,4.772-9.671,9.634-9.671
						c4.238,0,7.199,3.977,7.199,9.671C139.01,138.253,136.635,142.694,132.658,142.694z M131.811,124.533
						c-2.728,0-6.246,3.047-6.246,6.283c0,3.254,4.375,8.491,7.093,8.491c1.946,0,2.964-4.271,2.964-8.491
						C135.622,128.482,134.819,124.533,131.811,124.533z"/>
				</g>
				<g>
					<path style="fill:#FFF5E9;" d="M151.296,144.576c-1.694,2.654-6.38,4.483-10.919,4.133c-4.777-0.361-9.384-3.139-10.084-9.926
						c-0.858-8.243-0.327-17.751-0.327-17.751l0.621-0.023l22.2-1.005C152.786,120.004,154.401,139.686,151.296,144.576z"/>
				</g>
				<g>
					<path style="fill:#E0D0BF;" d="M140.376,148.709c-4.777-0.361-9.384-3.139-10.084-9.926
						c-0.858-8.243-0.327-17.751-0.327-17.751l0.621-0.023l5.07,0.689c0,0-3.851,24.504,4.483,26.943
						C140.218,148.664,140.297,148.686,140.376,148.709z"/>
				</g>
				<g>
					<path style="fill:#DDA794;" d="M116.473,123.095c0.423-0.421,8.481-4.086,10.822-4.776c4.801-1.415-1.9,6.427-3.646,6.896
						C122.29,125.579,116.473,123.095,116.473,123.095z"/>
				</g>
				<g>
					<path style="fill:#62386B;" d="M128.25,146.624c0.178,1.194-6.494,7.505-11.674,8.277c-5.18,0.773-9.524,0.431-9.702-0.763
						c-0.178-1.194,3.242-5.473,8.422-6.246C120.476,147.12,128.072,145.43,128.25,146.624z"/>
				</g>
				<g>
					<polygon style="fill:#B79C7E;" points="178.775,289.768 123.599,412.136 138.267,412.136 192.618,290.164 					"/>
				</g>
				<g>
					<path style="fill:#BD79C6;" d="M246.986,201.806l25.813,19.666l36.675-0.04l22.255-35.944c0,0-7.39-11.913-21.103-9.563
						c-6.741,1.155-6.948,5.79-16.211-1.93c-9.264-7.72-17.759-28.419-30.368-38.253
						C254.778,128.515,246.986,201.806,246.986,201.806z"/>
				</g>
				<g style="opacity:0.24;">
					<path style="fill:#333232;" d="M270.773,166.6c1.411,1.694-4.306,40.852,16.02,38.311
						c20.326-2.541,48.273-10.316,48.273-10.316l9.588,18.785c0,0-23.421,20.608-24.268,20.89c-0.847,0.282-49.589,0-49.589,0
						s-16.76-7.531-17.038-9.034c-0.278-1.503-13.546-20.482-13.546-22.662C240.213,200.395,270.773,166.6,270.773,166.6z"/>
				</g>
				<g>
					<path style="fill:#FFCCB6;" d="M130.01,128.462c0.056,0.813-0.023,1.671-0.237,2.597c-0.056,0.271-0.124,0.542-0.214,0.824
						c-0.237,0.79-0.565,1.604-0.994,2.462c-0.632,1.242-3.568-2.676-4.37,1.694c-0.361,1.908-3.241,6.498-5.683,8.913
						c-0.691,0.683-11.637,9.186-11.637,9.186s-0.318-8.75-0.894-13.763c-0.576-5.014,5.217-12.737,6.177-13.697
						c0,0,4.506-4.788,8.3-5.217c3.241-0.361,6.177,0.644,7.904,2.699c0.282,0.328,0.531,0.678,0.745,1.05
						c0.395,0.7,0.678,1.479,0.802,2.349C129.976,127.852,130.01,128.157,130.01,128.462z"/>
				</g>
				<g>
					<path style="fill:#DDA794;" d="M248.075,81.18c1.742-1.177,8.76-2.528,9.122,1.519c0.362,4.047-14.598,17.632-16.731,15.873
						c-2.132-1.759-1.388-6.194-1.082-6.684C239.69,91.399,245.222,83.107,248.075,81.18z"/>
				</g>
				<path style="fill:#CEB08D;" d="M233.864,60.861c-1.816-0.234-3.562-0.714-4.847-1.291c-4.4-1.977-7.721-7.392-10.093-11.373
					c-0.821-1.377-1.807-2.873-2.668-4.44c-7.861,6.21-13.248,16.296-11.258,26.943c1.552,8.306,9.574,19.306,13.887,23.929
					c6.016,6.445,7.417,2.983,15.56,4.264c3.54,0.557,6.569,0.024,9.17-1.29c-2.351-4.615-4.313-9.48-5.604-14.415
					C236.111,75.931,234.758,68.36,233.864,60.861z"/>
				<g>
					<path style="fill:#C4B9FF;" d="M177.072,131.12c-16.71,5.344-21.636,21.344-25.617,31.91
						c-3.981,10.566-9.814,107.093,14.311,124.046c9.499,6.675,60.137,5.319,85.739,4.06c8.949-0.44,23.996,1.098,26.536-13.184
						l2.019-46.113c0,0-52.723-30.753-56.197-38.26c-3.474-7.507,0.444-51.198,0.444-51.198S210.83,120.324,177.072,131.12z"/>
				</g>
				<g>
					<path style="fill:#FFCCB6;" d="M244.161,124.377l-33.221,0.994c6.222-2.179,5.228-37.614,5.228-37.614L232,89.97l6.256,11.924
						l1.57,3.004c-0.068,0.181-0.124,0.339-0.169,0.486c-0.034,0.079-0.056,0.169-0.079,0.248c-0.565,1.66-0.802,3.309-0.802,4.889
						c0,0.158,0,0.305,0.022,0.463c0,0.587,0.057,1.174,0.124,1.739v0.011C239.78,119.352,244.161,124.377,244.161,124.377z"/>
				</g>
				<g>
					<path style="fill:#BD79C6;" d="M267.469,223.829l-88.285,8.011c0,0-11.108-79.45,2.453-94.604
						c4.381-4.901,12.139-7.04,18.316-8.862c0.384-0.113,0.745-0.294,1.107-0.418c3.252-1.208,6.177-2.066,8.164-2.597
						c1.705-0.452,2.733-0.666,2.733-0.666l32.205-0.316c0,0,0.858,0.384,2.281,1.039c1.547,0.723,3.76,1.761,6.256,2.981
						c0.35,0.181,0.702,0.346,1.062,0.531c16.143,8.309,17.885,17.32,19.321,19.824
						C275.731,153.374,267.469,223.829,267.469,223.829z"/>
				</g>
				<g style="opacity:0.24;">
					<path style="fill:#333232;" d="M193.355,164.636c0,0,7.524,50.156-11.672,56.837c-19.196,6.682-19.875-3.701-19.875-3.701
						l8.583-28.078L193.355,164.636z"/>
				</g>
				<g>
					<g>
						<path style="fill:#BD79C6;" d="M199.953,128.374c0,0-7.092,40.525-9.61,51.151c-6.403,26.988-25.577,44.253-25.577,44.253
							s-25.023,5.951-35.062,0.937c-10.039-5.014-13.686-33.368-16.385-39.15c-2.71-5.793-7.645-19.513-4.946-23.374
							c2.71-3.862,18.926-9.384,24.334-7.453c4.81,1.716,11.845,17.864,13.325,21.376l0.011,0.034
							c0.181,0.406,0.271,0.632,0.271,0.632s0.26-0.463,0.734-1.276c2.123-3.693,11.427-18.545,15.661-24.767
							C176.804,130.04,199.953,128.374,199.953,128.374z"/>
					</g>
				</g>
				<g>
					<polygon style="fill:#86558E;" points="106.869,154.192 128.25,146.624 130.154,154.368 108.58,162.031 					"/>
				</g>
				<g>
					<rect x="77.653" y="223.734" style="fill:#FFE8C7;" width="372.404" height="16.211"/>
				</g>
				<g>
					<g>
						<path style="fill:#4183C4;" d="M331.008,265.073c-0.881,6.342-2.179,8.909-5.838,17.503
							c-12.207,28.772-52.537,93.578-52.537,93.578l-29.042-12.31l39.166-85.989l0.237-0.519l1.039-2.315l0.011-0.023l-19.614,0.497
							c0,0-63.111-3.478-74.686-4.054c-11.586-0.576-10.535-28.366-10.535-28.366l-0.023-3.128h138.508
							C331.008,239.948,332.444,254.734,331.008,265.073z"/>
					</g>
				</g>
				<g>
					<polygon style="fill:#D1B48F;" points="75.899,239.948 75.526,247.187 66.628,418.701 55.437,418.701 55.437,239.948 					"/>
				</g>
				<g>
					<polygon style="fill:#D1B48F;" points="438.892,239.948 438.892,418.701 427.702,418.701 418.815,247.187 418.442,239.948 
											"/>
				</g>
				<g>
					<g>
						<path style="fill:#BD79C6;" d="M289.89,414.8c-1.13,1.71-6.88,5.73-19.51-1.38c-6.82-3.84-22.68-13.29-31.53-17.6
							c-4.17-2.03-13.91-8.31-11.56-12.7c0.28-0.53,0.72-1.13,1.25-1.78c0.17-0.21,0.36-0.42,0.55-0.63
							c3.45-3.89,9.82-8.92,9.82-8.92l22.6,8.47c0,0,1.14,3.93,2.49,7.63c0.13,0.36,0.26,0.72,0.4,1.07
							c0.55,1.44,1.12,2.78,1.65,3.76c0.02,0.04,0.04,0.09,0.09,0.13c0,0,0,0.02,0.01,0.02c0.14,0.24,0.39,0.5,0.72,0.81
							c0.02,0.02,0.04,0.04,0.07,0.05l0.01,0.02c0.26,0.23,0.55,0.47,0.89,0.74c0.71,0.55,1.6,1.18,2.61,1.83
							c0.03,0.02,0.06,0.05,0.09,0.07c0.09,0.05,0.18,0.12,0.27,0.18l0.68,0.44c0.03,0.02,0.07,0.04,0.1,0.07
							c0.09,0.05,0.18,0.11,0.27,0.18c0.78,0.49,1.6,1.03,2.44,1.57c0.36,0.22,0.72,0.46,1.09,0.69c0.25,0.15,0.49,0.31,0.73,0.47
							c0.07,0.05,0.14,0.09,0.21,0.14c0.28,0.18,0.58,0.36,0.86,0.55c0.08,0.04,0.15,0.1,0.23,0.15
							c5.76,3.77,10.38,7.53,11.76,10.73c0.09,0.21,0.17,0.42,0.23,0.63c0.01,0.02,0.01,0.05,0.02,0.08
							C289.62,412.89,290.12,414.47,289.89,414.8z"/>
					</g>
				</g>
				<g>
					<g>
						<circle style="fill:#C4B9FF;" cx="82.125" cy="64.473" r="30.074"/>
					</g>
					<g>
						<path style="fill:#8C85C9;" d="M82.125,90.894c-14.568,0-26.421-11.852-26.421-26.421c0-14.569,11.852-26.421,26.421-26.421
							c14.569,0,26.421,11.852,26.421,26.421C108.546,79.042,96.693,90.894,82.125,90.894z M82.125,39.143
							c-13.967,0-25.329,11.363-25.329,25.33c0,13.967,11.363,25.33,25.329,25.33s25.33-11.363,25.33-25.33
							C107.455,50.506,96.091,39.143,82.125,39.143z"/>
					</g>
					<g>
						<g>
							<path style="fill:#8C85C9;" d="M84.491,64.611c0,1.196-0.97,2.166-2.166,2.166c-1.196,0-2.165-0.97-2.165-2.166
								c0-1.196,0.969-2.165,2.165-2.165C83.521,62.446,84.491,63.415,84.491,64.611z"/>
						</g>
						<g>
							<path style="fill:#8C85C9;" d="M82.901,65.398c-0.309,0-0.617-0.131-0.832-0.385c-0.39-0.46-0.334-1.148,0.125-1.538
								l8.537-7.248c0.461-0.39,1.149-0.334,1.538,0.125c0.39,0.46,0.334,1.148-0.125,1.538l-8.537,7.248
								C83.401,65.312,83.15,65.398,82.901,65.398z"/>
						</g>
						<g>
							<path style="fill:#8C85C9;" d="M81.857,66.027c-0.072,0-0.146-0.007-0.218-0.022l-12.238-2.49
								c-0.591-0.12-0.972-0.696-0.852-1.287c0.12-0.591,0.699-0.97,1.287-0.852l12.238,2.49c0.591,0.12,0.972,0.696,0.852,1.287
								C82.819,65.67,82.365,66.027,81.857,66.027z"/>
						</g>
					</g>
				</g>
				<g>
					<rect x="48.726" y="223.734" style="fill:#D1B48F;" width="138.233" height="16.211"/>
				</g>
				<g style="opacity:0.24;">
					<path style="fill:#333232;" d="M238.775,110.521c0,0.158,0,0.305,0.022,0.463c-0.011,0.248,0.03,0.533,0.03,0.782
						c0,0-11.649-2.695-13.719-10.6c0-0.181,9.128,2.535,13.148,1.948l1.321,2.518C239.012,107.292,238.775,108.941,238.775,110.521
						z"/>
				</g>
				<g>
					<path style="fill:#FFCCB6;" d="M256.82,69.484c0,0.779-0.045,1.581-0.124,2.371c-0.045,0.373-0.102,0.757-0.158,1.129
						l-0.079,0.508c-0.079,0.474-0.203,1.253-0.361,2.236c-0.847,5.296-2.8,16.87-4.483,23.589
						c-1.016,4.043-3.625,8.096-5.443,8.571c-2.676,0.7-6.651,0.858-10.118,0.542c-3.738-0.361-8.175-3.41-10.569-6.312
						l-7.792-9.451l0.87-4.076c-7.701-5.691-3.444-17.062-2.292-26.954c1.186-10.31,10.332-17.819,20.574-16.08
						c2.484,0.429,4.822,1.22,6.945,2.315c0.305,0.147,0.587,0.305,0.881,0.474h0.011C252.145,52.591,256.932,60.642,256.82,69.484z
						"/>
				</g>
				<g>
					<path style="fill:#AA8663;" d="M225.147,69.799c-0.466,0.065-0.661-0.567-0.244-0.783c2.138-1.107,5.702-2.606,8.857-2.293
						c4.9,0.485,6.832,2.275,5.226,3.227c-1.556,0.922-3.004-0.663-5.395-0.862C231.779,68.936,227.689,69.442,225.147,69.799z"/>
				</g>
				<g>
					<path style="fill:#AA8663;" d="M256.82,69.484c0,0.779-0.045,1.581-0.124,2.371c-1.287-0.542-2.473-0.994-3.263-1.174
						c-2.337-0.542-4.201,0.531-5.398-0.824c-1.231-1.412,1.152-2.518,5.962-1.479C254.968,68.592,255.916,68.976,256.82,69.484z"/>
				</g>
				<g>
					<path style="fill:#DDA794;" d="M247.739,89.027c-0.022,0-0.044-0.002-0.067-0.006l-7.398-1.176
						c-0.23-0.036-0.388-0.254-0.351-0.485c0.036-0.23,0.256-0.392,0.485-0.351l6.648,1.056c-0.508-1.146-1.047-2.038-1.532-2.84
						c-1.027-1.696-1.913-3.161-1.907-5.999c0.001-0.233,0.19-0.422,0.423-0.422c0.001,0,0.001,0,0.001,0
						c0.234,0.001,0.423,0.191,0.423,0.424c-0.006,2.6,0.784,3.906,1.784,5.558c0.596,0.985,1.271,2.102,1.886,3.661
						c0.056,0.141,0.031,0.302-0.064,0.42C247.988,88.97,247.866,89.027,247.739,89.027z"/>
				</g>
				<g>
					<g>
						<polygon style="fill:#2B1813;" points="228.651,74.607 235.966,74.88 235.695,76.598 228.249,76.011 						"/>
					</g>
					<g>
						<path style="fill:#2B1813;" d="M234.126,77.112c-0.168,1.066-0.819,1.85-1.454,1.75c-0.635-0.1-1.014-1.045-0.847-2.112
							c0.168-1.066,0.819-1.85,1.454-1.75S234.294,76.046,234.126,77.112z"/>
					</g>
				</g>
				<g>
					<g>
						<polygon style="fill:#2B1813;" points="247.709,75.603 255.024,75.875 254.753,77.594 247.258,77.175 						"/>
					</g>
					<g>
						<path style="fill:#2B1813;" d="M253.184,78.108c-0.168,1.066-0.819,1.85-1.454,1.75c-0.635-0.1-1.014-1.046-0.847-2.112
							c0.168-1.066,0.819-1.85,1.454-1.75C252.973,76.096,253.352,77.041,253.184,78.108z"/>
					</g>
				</g>
				<g>
					<path style="fill:#A569AF;" d="M251.333,85.913c-0.386,0-0.772-0.047-1.152-0.143c-1.522-0.383-2.756-1.493-3.473-3.124
						c-0.696-1.582-0.822-3.478-0.354-5.336c0.467-1.858,1.475-3.469,2.837-4.533c1.404-1.098,3.017-1.492,4.538-1.109
						c3.088,0.777,4.805,4.572,3.827,8.46l0,0c-0.468,1.858-1.475,3.469-2.837,4.533C253.666,85.486,252.496,85.913,251.333,85.913z
						 M252.584,72.655c-0.914,0-1.847,0.345-2.697,1.011c-1.166,0.911-2.031,2.303-2.438,3.92c-0.406,1.616-0.303,3.252,0.293,4.606
						c0.574,1.306,1.538,2.187,2.715,2.483c1.177,0.297,2.445-0.024,3.567-0.903c1.165-0.911,2.031-2.303,2.438-3.92
						c0.826-3.285-0.523-6.465-3.008-7.09C253.168,72.691,252.877,72.655,252.584,72.655z"/>
				</g>
				<g>
					<g>
						<path style="fill:#DDA794;" d="M243.477,96.649c-1.272,0-2.843-0.441-4.687-1.77c-0.19-0.137-0.233-0.401-0.096-0.591
							c0.136-0.189,0.4-0.234,0.591-0.096c4.784,3.45,7.263,0.37,7.366,0.238c0.144-0.185,0.409-0.217,0.594-0.075
							c0.185,0.144,0.218,0.41,0.075,0.594C247.3,94.974,245.957,96.649,243.477,96.649z"/>
					</g>
					<g>
						<path style="fill:#DDA794;" d="M244.041,100.013c-0.014,0-0.029-0.001-0.044-0.002l-2.247-0.228
							c-0.233-0.024-0.402-0.232-0.378-0.464c0.024-0.232,0.227-0.4,0.464-0.378l2.247,0.228c0.233,0.024,0.402,0.232,0.378,0.464
							C244.44,99.85,244.256,100.013,244.041,100.013z"/>
					</g>
				</g>
				<g>
					<path style="fill:#A569AF;" d="M247.152,76.741c-0.202,0-0.396-0.108-0.499-0.298c-0.587-1.096-1.336-1.734-2.228-1.896
						c-1.826-0.332-3.766,1.346-3.786,1.363c-0.233,0.205-0.592,0.184-0.796-0.051c-0.206-0.234-0.184-0.59,0.05-0.796
						c0.095-0.084,2.361-2.056,4.728-1.627c1.25,0.225,2.268,1.058,3.027,2.475c0.147,0.275,0.044,0.617-0.232,0.764
						C247.333,76.72,247.242,76.741,247.152,76.741z"/>
				</g>
				<g>
					<path style="fill:#A569AF;" d="M212.146,78.553c-0.139,0-0.279-0.051-0.388-0.155c-0.227-0.215-0.236-0.572-0.021-0.798
						l1.895-2.993c0.119-0.125,0.711-0.671,1.929-0.729c3.569-0.17,14.233,1.295,14.233,1.295c0.311,0.028,0.539,0.303,0.511,0.614
						c-0.029,0.31-0.296,0.545-0.614,0.511l-13.961-1.27l-3.175,3.349C212.445,78.494,212.295,78.553,212.146,78.553z"/>
				</g>
				<g>
					<g>
						<path style="fill:#FFCCB6;" d="M220.782,76.546c-1.558-1.412-8.003-3.571-9.841,0.053
							c-2.309,4.552,8.781,19.655,11.141,18.216c2.36-1.439,4.494-5.087,4.26-5.615C226.108,88.672,223.333,78.858,220.782,76.546z"
							/>
					</g>
					<g>
						<path style="fill:#DDA794;" d="M213.352,79.652c-0.022,0-0.045-0.002-0.067-0.005c-0.231-0.037-0.389-0.254-0.352-0.485
							c0.152-0.956,0.56-1.616,1.212-1.962c1.158-0.612,2.621,0.058,2.682,0.087c0.211,0.099,0.302,0.35,0.203,0.562
							c-0.098,0.211-0.35,0.306-0.562,0.205c-0.011-0.005-1.146-0.523-1.93-0.104c-0.403,0.215-0.662,0.667-0.769,1.345
							C213.737,79.503,213.557,79.652,213.352,79.652z"/>
					</g>
				</g>
				<g>
					<path style="fill:#A569AF;" d="M234.065,85.18c-0.378,0-0.758-0.045-1.134-0.14c-3.088-0.777-4.805-4.573-3.827-8.461
						c0.468-1.858,1.475-3.469,2.837-4.533c1.404-1.099,3.015-1.492,4.538-1.109c1.522,0.383,2.756,1.493,3.473,3.124
						c0.696,1.582,0.821,3.478,0.354,5.336C239.448,82.812,236.791,85.18,234.065,85.18z M235.334,71.924
						c-0.914,0-1.846,0.345-2.697,1.011c-1.165,0.911-2.031,2.303-2.438,3.92c-0.825,3.284,0.524,6.465,3.008,7.09
						c2.484,0.625,5.178-1.539,6.004-4.823c0.406-1.616,0.303-3.252-0.293-4.606c-0.573-1.306-1.538-2.187-2.715-2.483
						C235.918,71.96,235.627,71.924,235.334,71.924z"/>
				</g>
				<g>
					<path style="fill:#FFCCB6;" d="M246.442,125.416c-0.598,1.66-9,4.78-18.891,4.78c-10.016,0-17.982-4.295-18.327-4.837
						c1.705-0.452,2.733-0.666,2.733-0.666l15.877-2.072l16.328,1.756C244.161,124.377,245.02,124.761,246.442,125.416z"/>
				</g>
				<g>
					<g>
						<path style="fill:#7E4C87;" d="M253.76,128.927c-2.688,3.354-9.553,9.203-24.56,9.203c-16.385,0-25.802-6.47-29.246-9.756
							c0.373-0.147,0.745-0.294,1.107-0.418c3.41,3.128,12.5,9.045,28.14,9.045c14.149,0,20.822-5.432,23.499-8.604
							C253.048,128.577,253.398,128.747,253.76,128.927z"/>
					</g>
				</g>
				<g>
					<path style="fill:#7E4C87;" d="M268.296,217.127c-0.02,0-0.041-0.001-0.061-0.003c-0.31-0.033-0.534-0.312-0.501-0.622
						c0.048-0.442,4.781-44.294,4.781-56.449c0-0.312,0.253-0.565,0.565-0.565s0.565,0.253,0.565,0.565
						c0,12.215-4.74,56.128-4.788,56.57C268.826,216.913,268.581,217.127,268.296,217.127z"/>
				</g>
				<g>
					<g>
						<path style="fill:#7E4C87;" d="M151.679,195.142c-0.045,0.011-0.102,0.023-0.147,0.023c-0.249,0-0.474-0.169-0.542-0.429
							l-4.946-18.587c0.181,0.406,0.271,0.632,0.271,0.632s0.26-0.463,0.734-1.276l5.025,18.948
							C152.154,194.746,151.973,195.063,151.679,195.142z"/>
					</g>
				</g>
				<g>
					<path style="fill:#7E4C87;" d="M176.969,210.995c-0.091,0-0.183-0.022-0.269-0.068c-0.274-0.148-0.376-0.491-0.227-0.765
						c0.092-0.171,9.265-17.113,9.968-18.742c12.747-29.542,2.548-52.826,2.444-53.057c-0.128-0.285-0.002-0.619,0.282-0.747
						c0.285-0.131,0.619-0.002,0.746,0.282c0.107,0.237,10.507,23.975-2.436,53.969c-0.723,1.674-9.632,18.132-10.012,18.832
						C177.364,210.888,177.17,210.995,176.969,210.995z"/>
				</g>
				<g>
					<path style="fill:#7E4C87;" d="M119.015,193.337c-0.114,0-0.23-0.035-0.33-0.107c-0.253-0.182-0.31-0.535-0.127-0.788
						c0-0.002,2.441-3.385,5.262-7.421c0.38-0.545,0.294-0.899,0.197-1.118c-0.828-1.852-7.013-3.255-10.718-3.703
						c-0.31-0.038-0.53-0.319-0.493-0.629c0.037-0.31,0.319-0.534,0.629-0.493c1.046,0.127,10.256,1.327,11.613,4.365
						c0.223,0.498,0.351,1.29-0.303,2.225c-2.825,4.044-5.272,7.435-5.272,7.435C119.363,193.256,119.19,193.337,119.015,193.337z"
						/>
				</g>
				<g>
					<g>
						<rect x="91.441" y="210.43" style="fill:#BFD4DD;" width="64.86" height="13.344"/>
					</g>
					<g>
						<rect x="149.077" y="210.43" style="fill:#F7F7F7;" width="56.414" height="13.319"/>
					</g>
					<g style="opacity:0.65;">
						<rect x="91.441" y="213.006" style="fill:#779DAA;" width="114.049" height="1.129"/>
					</g>
					<g style="opacity:0.65;">
						<rect x="91.441" y="216.537" style="fill:#779DAA;" width="114.049" height="1.129"/>
					</g>
					<g style="opacity:0.65;">
						<rect x="91.441" y="220.227" style="fill:#779DAA;" width="114.049" height="1.129"/>
					</g>
				</g>
				<g>
					<g>
						<path style="fill:#DDA794;" d="M129.107,125.21c-1.378-0.361-3.309-0.598-4.765-0.666c-0.226-0.011-0.407-0.215-0.395-0.44
							c0.011-0.237,0.203-0.429,0.44-0.407c0.553,0.034,2.315,0.135,3.975,0.463C128.644,124.487,128.892,124.837,129.107,125.21z"
							/>
					</g>
				</g>
				<g>
					<g>
						<path style="fill:#DDA794;" d="M130.01,128.462c-1.22-0.418-3.546-0.553-5.194-0.497c-0.226,0.011-0.429-0.181-0.44-0.407
							c-0.011-0.237,0.181-0.44,0.407-0.44c0.677-0.023,3.331-0.079,5.127,0.44C129.976,127.852,130.01,128.157,130.01,128.462z"/>
					</g>
				</g>
				<g>
					<g>
						<path style="fill:#DDA794;" d="M129.773,131.059c-0.056,0.271-0.124,0.542-0.214,0.824c-1.411-0.384-3.399-0.598-4.776-0.666
							c-0.237-0.011-0.418-0.215-0.407-0.452c0.011-0.226,0.237-0.406,0.452-0.395C125.482,130.404,127.91,130.551,129.773,131.059z
							"/>
					</g>
				</g>
				<g>
					<path style="fill:#FFCCB6;" d="M120.166,143.079l1.293,5.948l-14.59,5.164c0,0,2.923-10.18,3.135-10.18
						S120.166,143.079,120.166,143.079z"/>
				</g>
				<g>
					<path style="fill:#A08B78;" d="M152.783,120.008c0.026,0.578-5.062,1.276-11.364,1.56c-6.302,0.284-11.433,0.046-11.459-0.531
						c-0.026-0.578,5.062-1.276,11.364-1.56C147.627,119.193,152.757,119.431,152.783,120.008z"/>
				</g>
				<g>
					<g>
						<path style="fill:#BD79C6;" d="M351.387,110.439h-36.242c-1.799,0-3.257-1.458-3.257-3.257V90.275
							c0-1.799,1.458-3.257,3.257-3.257h36.242c1.799,0,3.257,1.458,3.257,3.257v16.906
							C354.645,108.98,353.186,110.439,351.387,110.439z"/>
					</g>
					<g>
						<g>
							<path style="fill:#7E4C87;" d="M349.842,94.301h-31.854c-0.312,0-0.565-0.252-0.565-0.565c0-0.312,0.253-0.565,0.565-0.565
								h31.854c0.312,0,0.565,0.253,0.565,0.565C350.407,94.049,350.154,94.301,349.842,94.301z"/>
						</g>
						<g>
							<path style="fill:#7E4C87;" d="M342.224,99.293h-23.728c-0.312,0-0.565-0.253-0.565-0.565c0-0.312,0.253-0.565,0.565-0.565
								h23.728c0.312,0,0.565,0.253,0.565,0.565C342.789,99.041,342.536,99.293,342.224,99.293z"/>
						</g>
						<g>
							<path style="fill:#7E4C87;" d="M342.733,104.285h-24.744c-0.312,0-0.565-0.253-0.565-0.565c0-0.312,0.253-0.565,0.565-0.565
								h24.744c0.312,0,0.565,0.253,0.565,0.565C343.297,104.033,343.045,104.285,342.733,104.285z"/>
						</g>
					</g>
				</g>
				<g>
					<g>
						<path style="fill:#4183C4;" d="M398.06,119.067h-19.561c-3.349,0-6.063-2.715-6.063-6.063v-9.463
							c0-3.349,2.715-6.063,6.063-6.063h19.561c3.349,0,6.063,2.715,6.063,6.063v9.463
							C404.124,116.353,401.409,119.067,398.06,119.067z"/>
					</g>
					<g>
						<g>
							<path style="fill:#2F6591;" d="M399.429,103.845h-21.902c-0.312,0-0.565-0.253-0.565-0.565c0-0.312,0.253-0.565,0.565-0.565
								h21.902c0.312,0,0.565,0.253,0.565,0.565C399.993,103.592,399.741,103.845,399.429,103.845z"/>
						</g>
						<g>
							<path style="fill:#2F6591;" d="M394.191,108.837h-16.314c-0.312,0-0.565-0.253-0.565-0.565c0-0.312,0.253-0.565,0.565-0.565
								h16.314c0.312,0,0.565,0.253,0.565,0.565C394.755,108.585,394.503,108.837,394.191,108.837z"/>
						</g>
						<g>
							<path style="fill:#2F6591;" d="M394.54,113.829h-17.013c-0.312,0-0.565-0.253-0.565-0.565c0-0.312,0.253-0.565,0.565-0.565
								h17.013c0.312,0,0.565,0.252,0.565,0.565C395.105,113.577,394.853,113.829,394.54,113.829z"/>
						</g>
					</g>
				</g>
				<g>
					<g>
						<path style="fill:#C4B9FF;" d="M353.593,149.132h-22.958c-2.411,0-4.365-1.954-4.365-4.365v-12.86
							c0-2.411,1.954-4.365,4.365-4.365h22.958c2.411,0,4.365,1.954,4.365,4.365v12.86
							C357.958,147.178,356.004,149.132,353.593,149.132z"/>
					</g>
					<g>
						<g>
							<path style="fill:#9B95D1;" d="M353.684,133.703h-21.903c-0.312,0-0.565-0.253-0.565-0.565s0.253-0.565,0.565-0.565h21.903
								c0.312,0,0.565,0.252,0.565,0.565S353.996,133.703,353.684,133.703z"/>
						</g>
						<g>
							<path style="fill:#9B95D1;" d="M348.446,138.695h-16.315c-0.312,0-0.565-0.253-0.565-0.565c0-0.312,0.253-0.565,0.565-0.565
								h16.315c0.312,0,0.565,0.253,0.565,0.565C349.011,138.442,348.758,138.695,348.446,138.695z"/>
						</g>
						<g>
							<path style="fill:#9B95D1;" d="M348.796,143.687h-17.014c-0.312,0-0.565-0.253-0.565-0.565c0-0.312,0.253-0.565,0.565-0.565
								h17.014c0.312,0,0.565,0.253,0.565,0.565C349.36,143.435,349.108,143.687,348.796,143.687z"/>
						</g>
					</g>
				</g>
				<g>
					<g>
						<path style="fill:#6867A5;" d="M400,176.853c0.108-0.02,4.2-0.8,4.2-0.8l0.489,2.682L400,179.581V176.853z"/>
					</g>
					<g>
						<polygon style="fill:#6867A5;" points="402.276,172.043 402.96,176.504 406.123,175.958 405.324,171.489 						"/>
					</g>
					<g>
						<path style="fill:#C4B9FF;" d="M414.351,178.77c-0.153,0.406-3.857,18.109-3.857,18.109l-2.875-0.608l3.822-18.014
							L414.351,178.77z"/>
					</g>
					<g>
						<path style="fill:#BD79C6;" d="M410.312,192.443l-2.563,0.181l-3.184,0.215l-0.508-3.026l-0.271-1.581l-2.134-12.557
							c-0.09-0.542,0.282-1.061,0.824-1.14l3.433-0.542c0.542-0.079,1.039,0.271,1.129,0.802c0.384,2.191,1.411,7.712,2.213,11.992
							c0.09,0.508,0.181,0.982,0.271,1.445c0.102,0.565,0.203,1.095,0.294,1.581C410.12,191.404,410.312,192.443,410.312,192.443z"
							/>
					</g>
					<g>
						<polygon style="fill:#4183C4;" points="423.196,175.471 418.318,188.231 417.72,189.812 415.247,196.271 408.855,196.271 
							411.588,189.812 412.266,188.231 412.367,187.994 412.367,187.971 418.296,173.992 						"/>
					</g>
					<g>
						<polygon style="fill:#BD79C6;" points="421.172,189.812 420.98,193.606 420.923,194.735 419.478,223.733 401.151,223.733 
							399.706,194.735 399.649,193.606 399.457,189.812 						"/>
					</g>
					<g>
						<path style="fill:#6867A5;" d="M399.715,176.908c0.184-0.038,0.385-0.075,0.57-0.108c0.363-0.064,0.709,0.176,0.774,0.538
							l1.884,10.442c0.061,0.339-0.146,0.669-0.478,0.761l-0.495,0.137c-0.377,0.105-0.763-0.137-0.834-0.521l-1.938-10.475
							C399.133,177.326,399.36,176.982,399.715,176.908z"/>
					</g>
					<g>
						<polygon style="fill:#4183C4;" points="411.441,178.256 411.947,175.785 414.967,176.331 414.351,178.77 						"/>
					</g>
					<g>
						<g>
							<polygon style="fill:#FFFFFF;" points="420.98,193.606 420.923,194.735 399.706,194.735 399.649,193.606 							"/>
						</g>
					</g>
				</g>
				<g style="opacity:0.24;">
					<path d="M288.742,271.871l-5.748,5.465l-0.237,0.519l1.287-2.857l-19.614,0.497c0,0-63.111-3.478-74.686-4.054
						c-11.586-0.576-10.535-28.366-10.535-28.366l-0.023-3.128h12.895c0,0,1.129,22.911,16.938,25.452
						C224.829,267.941,288.742,271.871,288.742,271.871z"/>
				</g>
				<g style="opacity:0.24;">
					<polygon points="75.899,239.948 75.526,247.187 55.437,247.187 55.437,239.948 					"/>
				</g>
				<g style="opacity:0.24;">
					<polygon points="438.892,239.948 438.892,247.187 418.815,247.187 418.442,239.948 					"/>
				</g>
				<g>
					<g>
						<path style="fill:#2F638E;" d="M296.138,266.496l-13.144,10.84l1.039-2.315l11.382-9.395c0.248-0.203,0.598-0.169,0.802,0.068
							C296.409,265.943,296.375,266.293,296.138,266.496z"/>
					</g>
				</g>
				<g>
					<polygon style="fill:#D1B48F;" points="182.123,239.948 181.75,247.187 172.863,421.02 161.662,421.02 161.662,239.948 					
						"/>
				</g>
				<g style="opacity:0.24;">
					<polygon points="182.123,239.948 181.75,247.187 161.662,247.187 161.662,239.948 					"/>
				</g>
				<g>
					<g>
						<path style="fill:#EAEAEA;" d="M266.948,393.746l-5.815,2.721c-0.079,0.034-0.158,0.045-0.237,0.045
							c-0.215,0-0.418-0.113-0.52-0.316c-0.124-0.282-0.011-0.621,0.271-0.757l5.499-2.575c0.147,0.248,0.395,0.508,0.723,0.813
							c0.023,0.023,0.045,0.045,0.068,0.056L266.948,393.746z"/>
					</g>
				</g>
				<g>
					<g>
						<path style="fill:#EAEAEA;" d="M264.4,388.96l-5.62,2.63c-0.08,0.04-0.16,0.05-0.24,0.05c-0.21,0-0.42-0.12-0.52-0.32
							c-0.12-0.28-0.01-0.62,0.27-0.76l5.71-2.67C264.13,388.25,264.26,388.61,264.4,388.96z"/>
					</g>
				</g>
				<g>
					<g>
						<path style="fill:#EAEAEA;" d="M271.861,397.258l-5.883,3.58c-0.09,0.056-0.192,0.079-0.294,0.079
							c-0.192,0-0.384-0.09-0.486-0.271c-0.158-0.26-0.079-0.61,0.192-0.768l5.42-3.309l0.678,0.44
							c0.034,0.023,0.068,0.045,0.102,0.068C271.68,397.133,271.77,397.19,271.861,397.258z"/>
					</g>
				</g>
				<g>
					<g>
						<path style="fill:#EAEAEA;" d="M277.19,400.679l-5.962,3.399c-0.09,0.056-0.192,0.068-0.282,0.068
							c-0.192,0-0.384-0.09-0.497-0.282c-0.147-0.26-0.057-0.598,0.215-0.757l5.454-3.117c0.068,0.045,0.147,0.09,0.215,0.135
							C276.614,400.306,276.908,400.487,277.19,400.679z"/>
					</g>
				</g>
				<g>
					<g>
						<path style="fill:#EAEAEA;" d="M281.509,403.616l-5.962,3.399c-0.09,0.056-0.192,0.068-0.282,0.068
							c-0.192,0-0.384-0.09-0.497-0.282c-0.147-0.26-0.056-0.598,0.215-0.757l5.494-3.16
							C280.821,403.111,281.169,403.352,281.509,403.616z"/>
					</g>
				</g>
				<g>
					<g>
						<path style="fill:#EAEAEA;" d="M347.421,399.022c-0.937,0.949-2.586,2.676-4.088,4.268c-0.102,0.113-0.26,0.181-0.406,0.181
							c-0.135,0-0.282-0.056-0.384-0.158c-0.226-0.214-0.237-0.576-0.023-0.802c0.723-0.768,2.575-2.733,3.839-4.009
							C346.709,398.672,347.059,398.841,347.421,399.022z"/>
					</g>
				</g>
				<g>
					<g>
						<path style="fill:#EAEAEA;" d="M342.561,396.635c-0.937,0.949-2.586,2.676-4.088,4.268c-0.102,0.113-0.26,0.181-0.406,0.181
							c-0.135,0-0.282-0.056-0.384-0.158c-0.226-0.215-0.237-0.576-0.022-0.802c0.723-0.768,2.574-2.733,3.839-4.009
							C341.849,396.285,342.199,396.455,342.561,396.635z"/>
					</g>
				</g>
				<g>
					<g>
						<path style="fill:#EAEAEA;" d="M353.008,401.78c-0.96,0.971-2.552,2.642-4.009,4.189c-0.113,0.113-0.26,0.181-0.418,0.181
							c-0.135,0-0.271-0.056-0.384-0.158c-0.226-0.215-0.237-0.565-0.023-0.802c0.711-0.757,2.518-2.665,3.76-3.941
							C352.285,401.43,352.646,401.61,353.008,401.78z"/>
					</g>
				</g>
				<g>
					<g>
						<path style="fill:#EAEAEA;" d="M358.315,404.441c-0.937,0.971-2.191,2.292-3.354,3.523c-0.113,0.113-0.26,0.181-0.418,0.181
							c-0.135,0-0.271-0.056-0.384-0.158c-0.226-0.215-0.237-0.565-0.023-0.802c0.599-0.632,1.954-2.055,3.105-3.263h0.011
							C357.604,404.102,357.965,404.271,358.315,404.441z"/>
					</g>
				</g>
				<g>
					<g>
						<path style="fill:#EAEAEA;" d="M363.49,407.06c-0.82,0.86-1.79,1.88-2.7,2.84c-0.11,0.12-0.25,0.18-0.41,0.18
							c-0.14,0-0.27-0.05-0.39-0.15c-0.22-0.22-0.23-0.57-0.02-0.81c0.49-0.52,1.49-1.56,2.47-2.59
							C362.79,406.71,363.14,406.89,363.49,407.06z"/>
					</g>
				</g>
				<g>
					<g>
						<g>
							<rect x="224.253" y="217.102" style="fill:#8988E5;" width="59.056" height="6.632"/>
						</g>
						<g>
							<polygon style="fill:#8988E5;" points="301.733,161.759 267.849,223.774 364.459,223.774 395.398,163.997 							"/>
						</g>
						<g>
							<polygon style="fill:#C5C3F4;" points="305.434,161.848 271.598,223.774 368.209,223.774 399.148,163.997 							"/>
						</g>
					</g>
					<g>
						<path style="fill:#6867A5;" d="M262.997,222.118h-7.041c-0.474,0-0.857-0.384-0.857-0.857v-1.299
							c0-0.474,0.384-0.857,0.857-0.857h7.041c0.474,0,0.858,0.384,0.858,0.857v1.299
							C263.855,221.734,263.471,222.118,262.997,222.118z"/>
					</g>
					<g>
						<path style="fill:#6867A5;" d="M248.05,222.118h-6.917c-0.508,0-0.919-0.411-0.919-0.919v-1.176
							c0-0.508,0.412-0.919,0.919-0.919h6.917c0.508,0,0.919,0.411,0.919,0.919v1.176
							C248.969,221.706,248.558,222.118,248.05,222.118z"/>
					</g>
				</g>
				<g>
					<path style="fill:#91549B;" d="M238.447,372.213c0,0,1.512,2.665,4.015,4.889c3.979,3.535,9.143,6.026,14.409,6.795
						c2.552,0.373,5.071,1.132,6.032,0.841c0.892-0.271-0.339-0.77-0.339-0.77S241.431,370.621,238.447,372.213z"/>
				</g>
				<g>
					<polygon style="fill:#56A6E8;" points="243.591,363.844 238.447,372.213 266.818,386.742 272.633,376.154 					"/>
				</g>
				<g>
					<path style="fill:#91549B;" d="M333.647,392.681c2.797-0.849-2.031,2.083-4.806,3.357c-9.763,4.481-19.904,2.361-20.721,2.789
						l0.641-3.294L333.647,392.681z"/>
				</g>
				<g>
					<path style="fill:#56A6E8;" d="M305.567,388.058c-0.225-0.887,32.654-6.23,32.654-6.23l1.647,9.646l-31.666,6.369
						L305.567,388.058z"/>
				</g>
				<g>
					<g>
						<path style="fill:#9E63A8;" d="M526.709,357.456l-6.628,45.101l-0.834,5.657c-0.834,5.71-5.731,9.943-11.505,9.943h-29.955
							c-5.89,0-10.85-4.412-11.547-10.27l-0.559-4.781l-5.394-45.819c-0.412-3.515,2.333-6.597,5.869-6.597h54.706
							C524.472,350.691,527.237,353.889,526.709,357.456z"/>
					</g>
					<g>
						<g>
							<g>
								<path style="fill:#8380C1;" d="M472.018,294.774c9.51-0.014,15.02,16.877,13.682,25.214
									c-1.338,8.337,1.974,26.511,1.974,26.511s-14.544,3.978-13.985-24.188C473.827,315.326,464.6,294.785,472.018,294.774z"/>
							</g>
							<g>
								<path style="fill:#A099E0;" d="M506.164,308.01c0,0,7.634-14.995,11.856-13.676c4.222,1.319,7.652,17.68,5.014,23.221
									c-2.639,5.541-9.462,31.665-16.869,30.873c-7.407-0.792-21.392-8.476-18.49-14.133
									C490.577,328.638,506.164,308.01,506.164,308.01z"/>
							</g>
							<g>
								<path style="fill:#A099E0;" d="M489.257,358.895c-1.16-5.544-8.186-18.9-8.796-24.6c-2.576-2.48-12.57-15.164-19.912-14.453
									c-8.16,0.79,7.326,23.806,17.22,34.251C477.924,351.273,489.849,361.72,489.257,358.895z"/>
							</g>
							<g>
								<path style="fill:#C4B9FF;" d="M514.096,353.952c-2.354,1.224-5.668,1.953-9.278,2.364
									c-0.686,0.084-1.372,0.158-2.079,0.211c-6.776,0.549-14.144,0.148-18.017-0.158c-1.752-0.137-3.399-0.908-4.634-2.164
									c-0.369-0.38-0.792-0.813-1.256-1.288c-1.267-1.309-2.354-8.444-2.692-10.207c-0.844-4.57-2.375-48.342,17.447-76.935
									c2.143-3.093,4.454-4.423,6.534-4.517c0.433-0.021,0.844,0.01,1.256,0.095c3.029,0.591,5.372,3.81,5.679,7.747
									c1.319,17.352,1.752,44.331-7.03,53.83c-13.352,14.429-3.969,20.202,0.359,15.875c3.451-3.441,11.463-21.279,17.321-20.424
									c0.359,0.053,0.718,0.179,1.056,0.38c1.087,0.633,2.079,2.069,2.913,4.528C527.089,339.165,523.121,349.266,514.096,353.952
									z"/>
							</g>
						</g>
						<g>
							<g>
								<path style="fill:#A099E0;" d="M486.246,353.72c0.042,0.285-0.158,0.549-0.443,0.591c-0.032,0.011-0.053,0.011-0.084,0.011
									c-0.253,0-0.475-0.19-0.517-0.454c-0.095-0.633-8.761-60.775,14.925-92.609c0.433-0.021,0.844,0.01,1.256,0.095
									C477.453,292.67,486.151,353.086,486.246,353.72z"/>
							</g>
						</g>
						<g>
							<path style="fill:#A099E0;" d="M518.761,318.762c-0.559,7.177-3.103,28.657-13.943,37.555
								c-2.122,1.752-4.56,3.008-7.367,3.589l-0.211-1.034c2.026-0.412,3.852-1.224,5.499-2.343
								c11.705-7.906,14.418-31.19,14.967-38.146C518.065,318.435,518.424,318.561,518.761,318.762z"/>
						</g>
						<g>
							<path style="fill:#A099E0;" d="M487.085,294.78c-0.127,0-0.255-0.045-0.356-0.138c-0.216-0.196-0.231-0.53-0.034-0.745
								l13.431-14.739c0.197-0.215,0.531-0.232,0.745-0.034c0.215,0.196,0.231,0.53,0.034,0.745l-13.431,14.739
								C487.371,294.722,487.229,294.78,487.085,294.78z"/>
						</g>
						<g>
							<path style="fill:#A099E0;" d="M484.917,315.932c-0.127,0-0.254-0.045-0.355-0.137c-0.215-0.195-0.232-0.529-0.036-0.745
								l12.433-13.725c0.197-0.214,0.531-0.231,0.745-0.036c0.216,0.195,0.232,0.529,0.036,0.745l-12.433,13.726
								C485.203,315.873,485.06,315.932,484.917,315.932z"/>
						</g>
						<g>
							<path style="fill:#A099E0;" d="M484.169,335.067c-0.178,0-0.354-0.091-0.452-0.256c-1.653-2.752-5.99-9.962-6.201-10.279
								c-0.162-0.242-0.096-0.57,0.146-0.732c0.24-0.161,0.568-0.097,0.732,0.146c0.268,0.402,5.985,9.916,6.228,10.32
								c0.15,0.251,0.069,0.574-0.18,0.725C484.356,335.042,484.262,335.067,484.169,335.067z"/>
						</g>
						<g>
							<path style="fill:#A099E0;" d="M512.118,345.619c-0.213,0-0.414-0.13-0.494-0.341l-3.686-9.768
								c-0.103-0.273,0.035-0.577,0.307-0.68c0.276-0.1,0.578,0.034,0.68,0.307l3.686,9.769c0.103,0.273-0.035,0.577-0.307,0.68
								C512.243,345.607,512.18,345.619,512.118,345.619z"/>
						</g>
						<g>
							<path style="fill:#A099E0;" d="M486.337,351.218c-0.104,0-0.209-0.031-0.301-0.094c-0.239-0.167-0.299-0.496-0.133-0.735
								c0.181-0.261,4.456-6.404,6.745-8.406c0.219-0.19,0.551-0.171,0.745,0.051c0.192,0.22,0.169,0.552-0.05,0.745
								c-2.191,1.915-6.529,8.149-6.572,8.212C486.668,351.138,486.504,351.218,486.337,351.218z"/>
						</g>
					</g>
					<g>
						<path style="fill:#BD79C6;" d="M526.709,357.456l-1.045,7.082l-0.148,1.055l-4.834,32.879
							c-0.686,4.623-4.053,8.518-8.623,9.51c-0.95,0.211-1.942,0.317-2.955,0.317h-32.942c-5.7-0.053-10.397-4.518-11.072-10.175
							l-3.821-32.53l-0.127-1.055l-0.855-7.251c-0.412-3.515,2.333-6.597,5.869-6.597h54.706
							C524.472,350.691,527.237,353.889,526.709,357.456z"/>
					</g>
					<g>
						<g>
							<polygon style="fill:#9E63A8;" points="525.664,364.539 525.517,365.594 461.269,365.594 461.142,364.539 							"/>
						</g>
					</g>
				</g>
				<polygon style="opacity:0.24;fill:#333232;" points="418.318,188.231 417.72,189.812 404.056,189.812 403.785,188.231 				"/>
				<g>
					<path style="fill:#C4B9FF;" d="M142.266,113.818c-0.058,0-0.118-0.009-0.176-0.028c-0.296-0.098-0.457-0.417-0.36-0.713
						c1.374-4.177-0.03-5.885-1.387-7.538c-0.847-1.03-1.722-2.097-1.722-3.648c0-4.871,4.719-6.45,4.767-6.466
						c0.293-0.096,0.613,0.067,0.71,0.363c0.096,0.296-0.066,0.614-0.362,0.711c-0.163,0.053-3.986,1.353-3.986,5.391
						c0,1.147,0.679,1.974,1.466,2.931c1.406,1.711,3.156,3.842,1.588,8.608C142.724,113.668,142.503,113.818,142.266,113.818z"/>
				</g>
				<path style="fill:#F0F0FF;" d="M349.218,194.326H335.01c-1.097,0-1.987-0.889-1.987-1.987v-0.908
					c0-1.097,0.889-1.987,1.987-1.987h14.207c1.097,0,1.987,0.889,1.987,1.987v0.908
					C351.205,193.437,350.315,194.326,349.218,194.326z"/>
				<path style="fill:#CEB08D;" d="M254.118,47.041c0,0,2.381,3.731-0.212,7.293c-1.952,2.682-7.453,1.491-8.434-0.306l3.282-1.633
					L254.118,47.041z"/>
				<g>
					<g>
						<g>
							<g>
								<path style="fill:#FFF0DC;" d="M254.186,46.604c1.088,3.601-1.329,10.196-6.075,9.084
									c-14.516-3.402-26.117,10.351-29.851,16.469c-1.09,1.772-3.242,2.439-5.073,1.728c-0.261-0.087-0.514-0.218-0.752-0.381
									c-0.116-0.064-0.218-0.137-0.319-0.222l-4.205-3.279l-0.694-0.532l-4.083-3.18l-0.163-0.129
									c-0.193-0.156-0.372-0.322-0.537-0.507c-0.844-0.956-1.222-2.261-0.932-3.519c0.398-1.801,1.382-4.572,3.694-8.655
									c4.864-8.608,13.476-14.616,25.279-16.319C243.46,35.287,252.304,40.374,254.186,46.604z"/>
							</g>
						</g>
						<g>
							<g>
								<path style="fill:#CEB08D;" d="M215.328,48.644l-0.05,0.026c-2.154,1.559-9.149,7.294-12.153,17.589l-0.163-0.128
									c-0.193-0.156-0.372-0.322-0.537-0.507c3.152-10.295,10.173-16.049,12.355-17.637c0.192-0.13,0.474-0.108,0.617,0.074
									C215.538,48.254,215.522,48.503,215.328,48.644z"/>
							</g>
						</g>
						<g>
							<g>
								<path style="fill:#CEB08D;" d="M214.915,57.63c-0.749,0.545-4.705,4.621-8.062,12.369l-0.694-0.532
									c3.389-7.731,7.328-11.844,8.259-12.532c0.192-0.13,0.448-0.089,0.591,0.093C215.15,57.221,215.108,57.489,214.915,57.63z"
									/>
							</g>
						</g>
						<g>
							<g>
								<path style="fill:#CEB08D;" d="M219.922,62.99c-0.981,0.714-5.766,4.534-9.27,13.219c-0.261-0.087-0.514-0.218-0.752-0.381
									c3.577-8.856,8.517-12.789,9.524-13.522c0.192-0.13,0.461-0.099,0.591,0.093C220.156,62.593,220.116,62.849,219.922,62.99z"
									/>
							</g>
						</g>
					</g>
				</g>
			</g>
		</g>
		<g>
			<path style="fill:#EAEAEA;" d="M372.77,410.72c-3.85,2.02-8.45,2.67-13.47,2.67c-4.35,0-9.02-0.48-13.81-0.98
				c-4.61-0.47-9.38-0.97-14.04-1.04c-12.8-0.21-21.14-3.23-24.05-4.48c-0.03-0.27-0.05-0.56-0.06-0.84
				c2.44,1.1,10.84,4.36,24.12,4.57c4.7,0.07,9.48,0.57,14.11,1.05c9.87,1.02,19.26,1.99,26.19-1.28
				C372.11,410.5,372.45,410.61,372.77,410.72z"/>
		</g>
		<g>
			<path style="fill:#EAEAEA;" d="M289.43,412.27c-1.99,1.1-3.99,1.57-6.02,1.57c-5.26,0-10.72-3.12-16.73-6.55
				c-3.57-2.04-7.26-4.16-11.29-5.86c-17.65-7.47-24.41-15.84-26.85-20.09c0.17-0.21,0.36-0.42,0.55-0.63
				c2.29,4.04,8.94,12.55,26.6,20.03c4.06,1.72,7.77,3.84,11.36,5.89c8.18,4.67,15.3,8.75,22.13,4.93c0.09,0.21,0.17,0.42,0.23,0.63
				C289.42,412.21,289.42,412.24,289.43,412.27z"/>
		</g>
	</g>
</g>
</svg>
